<svg width="74" height="70" viewBox="0 0 74 70" fill="none" xmlns="http://www.w3.org/2000/svg">
<path d="M15.1899 27.2516C21.5277 23.848 28.4471 23.9623 35.4301 24.4863C35.9556 24.5262 37.1065 24.6948 38.1486 25.1246C39.1925 25.5543 40.1276 26.247 40.5281 26.5879C45.8528 31.1392 50.8404 35.9372 52.9427 42.8222C54.9743 49.4842 56.0164 57.7183 52.3555 63.9651C48.9954 69.6987 42.4982 71.5446 36.6081 68.3931C31.9994 65.927 28.5559 60.7628 25.4912 55.8506C19.8585 57.1761 13.7763 58.4128 8.77067 56.9114C2.37312 54.9929 -0.938077 49.1034 0.716586 42.6663C2.51624 35.6525 9.057 30.5463 15.1899 27.2516Z" fill="currentColor" stroke="white" stroke-width="2"/>
<path d="M56.901 10.6241C67.6826 15.0721 60.7922 31.8431 49.9924 27.3897C39.2127 22.9435 46.1013 6.17067 56.901 10.6241Z" fill="currentColor" stroke="white" stroke-width="2"/>
<path d="M67.9144 29.926C78.696 34.374 71.8056 51.145 61.0077 46.6916C50.2261 42.2454 57.1147 25.4726 67.9144 29.926Z" fill="currentColor" stroke="white" stroke-width="2" />
<path d="M34.3827 1.66859L34.3828 1.66863C36.8201 2.67386 38.1994 4.3373 38.8066 6.18042C39.4224 8.04976 39.2651 10.1754 38.4784 12.082C37.6917 13.9886 36.304 15.6071 34.5495 16.4992C32.8195 17.3788 30.67 17.5867 28.2367 16.5835C25.799 15.5782 24.4196 13.9147 23.8125 12.0715C23.1967 10.202 23.3542 8.07627 24.1412 6.16954C24.9281 4.2628 26.316 2.64421 28.0706 1.75216C29.8006 0.872621 31.9499 0.664939 34.3827 1.66859Z" fill="currentColor" stroke="white" stroke-width="2"/>
<path d="M12.9723 7.59813L12.9725 7.59821C15.4103 8.60348 16.7898 10.2669 17.3971 12.11C18.013 13.9793 17.8557 16.1049 17.0689 18.0115C16.2822 19.9181 14.8945 21.5367 13.14 22.4288C11.4101 23.3084 9.2609 23.5163 6.82812 22.513L6.8281 22.513C4.39035 21.5078 3.01097 19.8443 2.40384 18.001C1.78807 16.1316 1.94553 14.0058 2.73239 12.0991C3.51926 10.1923 4.90702 8.57374 6.66137 7.68171C8.39111 6.80219 10.54 6.59452 12.9723 7.59813Z" fill="currentColor" stroke="white" stroke-width="2"/>
</svg>
